<svg id="ICON" xmlns="http://www.w3.org/2000/svg" viewBox="0 0 512 512"><defs><style>.cls-1{fill:#d4595d;}.cls-2{fill:#afafaf;}.cls-3{fill:#2a3342;}.cls-4{fill:#dce6e8;}.cls-5{fill:#67ab65;}.cls-6{fill:#a7a9aa;}.cls-7{fill:#556366;}.cls-8{fill:#eaf1f3;}.cls-9{fill:#9ec9db;}.cls-10{fill:#c2d0d1;}.cls-11{fill:#8ebadb;}.cls-12{fill:#d07c2c;}.cls-13{fill:#d7a277;}.cls-14{fill:#cf6b58;}.cls-15{fill:#d1c8c7;}.cls-16{fill:none;}.cls-17{fill:#e29e58;}.cls-18{fill:#bf7632;}.cls-19{fill:#cedee0;}.cls-20{fill:#dbdde0;}</style></defs><title>Cooking</title><rect class="cls-1" x="72.67" y="399.18" width="366.66" height="87.19" rx="19.36"/><rect class="cls-2" x="62.61" y="372.97" width="386.78" height="26.21"/><rect class="cls-3" x="121.86" y="351.52" width="268.29" height="21.19"/><rect class="cls-3" x="102.2" y="193.93" width="52.44" height="40.59" rx="13.67"/><rect class="cls-3" x="357.36" y="193.93" width="52.44" height="40.59" rx="13.67"/><path class="cls-4" d="M379.22,175.31v112a64.17,64.17,0,0,1-64.17,64.18H196.62a64.19,64.19,0,0,1-64.21-64.18v-112Z"/><circle class="cls-5" cx="300.2" cy="270.82" r="6.6"/><rect class="cls-6" x="308.5" y="87.74" width="27.52" height="11.18" transform="translate(76.68 -135.25) rotate(26.8)"/><rect class="cls-7" x="318.11" y="26.7" width="41.29" height="67.95" rx="13.33" transform="translate(63.73 -146.19) rotate(26.8)"/><rect class="cls-3" x="296.49" y="97.7" width="41.29" height="11.59" rx="5.79" transform="translate(80.71 -131.85) rotate(26.8)"/><rect class="cls-8" x="326.05" y="36.01" width="7.74" height="40.43" rx="3.87" transform="translate(60.77 -142.69) rotate(26.8)"/><rect class="cls-8" x="343.71" y="44.92" width="7.74" height="40.43" rx="3.87" transform="translate(66.69 -149.7) rotate(26.8)"/><circle class="cls-3" cx="302.67" cy="129.74" r="3.15"/><circle class="cls-3" cx="318.68" cy="123.43" r="3.15"/><circle class="cls-3" cx="299.51" cy="152.96" r="3.15"/><circle class="cls-3" cx="291.24" cy="115.98" r="3.15"/><circle class="cls-3" cx="288.08" cy="146.65" r="3.15"/><path class="cls-9" d="M379.22,249.27v38.07a64.17,64.17,0,0,1-64.17,64.18H196.62a64.19,64.19,0,0,1-64.21-64.18v-42.9a95.19,95.19,0,0,1,36.54-.65,97.27,97.27,0,0,1,27.3,9.22,57,57,0,0,0,60.7,0s27-20.51,62.34,0c0,0,29.7,12,51.62,0A41.05,41.05,0,0,1,379.22,249.27Z"/><path class="cls-10" d="M169,243.79a641.93,641.93,0,0,1-2.48-68.48c.08-4.9.19-9.2.31-12.67H134.59a6.34,6.34,0,1,0,0,12.67h-2.18v69.13A95.19,95.19,0,0,1,169,243.79Z"/><path class="cls-9" d="M132.41,244.44l36.54-.65A95.19,95.19,0,0,0,132.41,244.44Z"/><path class="cls-11" d="M169,243.79l-1.75-.36a76.28,76.28,0,0,0-32.91.56l-1.88.45v42.9a64.19,64.19,0,0,0,64.21,64.18h11.17C183.44,333.59,173.11,287.26,169,243.79Z"/><circle class="cls-12" cx="216.91" cy="290.29" r="19.47"/><circle class="cls-13" cx="216.91" cy="290.29" r="13.63"/><circle class="cls-12" cx="327.64" cy="296.23" r="13.52"/><circle class="cls-13" cx="327.64" cy="296.23" r="9.47"/><circle class="cls-12" cx="290.92" cy="274.32" r="10.85"/><circle class="cls-13" cx="290.92" cy="274.32" r="7.6"/><path class="cls-14" d="M277,308.93l5-1.57,4.51-1.42a19.9,19.9,0,0,1-38,12l4.52-1.43,5-1.57Z"/><path class="cls-15" d="M253,316.48l28.94-9.12A15.17,15.17,0,1,1,253,316.48Z"/><path class="cls-14" d="M277,308.93a9.95,9.95,0,1,1-19,6Z"/><path class="cls-15" d="M272.2,310.43a5,5,0,1,1-9.48,3Z"/><polyline class="cls-16" points="257.98 314.91 262.72 313.42 272.2 310.43 276.95 308.93"/><polyline class="cls-16" points="164.58 278.75 168.06 282.3 175.01 289.4 178.5 292.96"/><path class="cls-14" d="M178.5,293l3.66,3.72,3.3,3.38a19.9,19.9,0,1,1-27.85-28.43l3.31,3.38,3.66,3.73Z"/><path class="cls-15" d="M160.92,275l21.24,21.67A15.17,15.17,0,1,1,160.92,275Z"/><path class="cls-14" d="M178.5,293a9.95,9.95,0,1,1-13.92-14.22Z"/><path class="cls-15" d="M175,289.4a5,5,0,1,1-7-7.1Z"/><circle class="cls-5" cx="327.64" cy="321.88" r="6.6"/><circle class="cls-5" cx="267.47" cy="277.42" r="6.6"/><circle class="cls-5" cx="357.36" cy="275.02" r="6.6"/><circle class="cls-5" cx="207.79" cy="330.07" r="6.6"/><circle class="cls-5" cx="178.5" cy="263.41" r="6.6"/><ellipse class="cls-17" cx="225.32" cy="215.72" rx="33.27" ry="45.97" transform="translate(-76.08 135.34) rotate(-28.82)"/><rect class="cls-17" x="172.92" y="75.58" width="17.72" height="121.99" transform="translate(406.88 168.61) rotate(151.18)"/><ellipse class="cls-18" cx="225.32" cy="215.72" rx="22.94" ry="31.69" transform="translate(-76.08 135.34) rotate(-28.82)"/><path class="cls-19" d="M383.38,169a6.33,6.33,0,0,1-6.33,6.34H134.59a6.34,6.34,0,1,1,0-12.67H377.05A6.32,6.32,0,0,1,383.38,169Z"/><circle class="cls-3" cx="132.75" cy="441" r="27.06"/><rect class="cls-20" x="102.3" y="437.07" width="60.89" height="7.86"/><circle class="cls-3" cx="207.73" cy="441" r="27.06"/><rect class="cls-20" x="177.28" y="437.07" width="60.89" height="7.86" transform="translate(372.68 -17.72) rotate(45)"/></svg>