<svg height="64" viewBox="0 0 64 64" width="64" xmlns="http://www.w3.org/2000/svg" xmlns:xlink="http://www.w3.org/1999/xlink"><defs><path id="a" d="m25 0c-13.8071187 0-25 11.1928813-25 25s11.1928813 25 25 25 25-11.1928813 25-25h-25z"/><path id="b" d="m25 25c0-13.8071187-11.1928813-25-25-25v25z"/><mask id="c" fill="#fff"><use fill="#fff" fill-rule="evenodd" xlink:href="#a"/></mask><mask id="d" fill="#fff"><use fill="#fff" fill-rule="evenodd" xlink:href="#b"/></mask></defs><g fill="none" fill-rule="evenodd"><g transform="translate(3 12)"><use fill="#ffdd95" xlink:href="#a"/><circle cx="25" cy="25" fill="#ed9111" mask="url(#c)" r="20"/></g><g fill="#e43535"><circle cx="32" cy="49" r="4"/><circle cx="21" cy="26" r="3"/><circle cx="19" cy="47" r="3"/></g><g transform="translate(31 9)"><use fill="#ffdd95" xlink:href="#b"/><circle cy="25" fill="#ed9111" mask="url(#d)" r="20"/></g><circle cx="42" cy="28" fill="#e43535" r="3"/><circle cx="15" cy="35" fill="#e43535" r="2"/><circle cx="24" cy="38" fill="#e43535" r="2"/><path d="m39.539186 43.2158758s-.1715172-1.4754251-4.2626744-.7377125m-7.1772242-1.1142084s-2.2044746 1.2403667-2.2206089 2.7918954m-4.3154359 7.8633393s2.2209381-1.6068463 3.6861975.0349028m-12.2805202-11.2429849s3.835687-.6888365 4.8169169.3812968" stroke="#ececec" stroke-linecap="round" stroke-width="2"/><path d="m19.890542 32.6754605s-4.3108261-.3029301-4.2324595-3.9924203m22.7353924-3.6830402s-3.2782298 1.2400375-3.3934749 2.7438217" stroke="#ffdd95" stroke-linecap="round" stroke-width="2"/><path d="m33.953081 17.4120672s1.9575208-1.0622307 3.5627207 1.7500795" stroke="#ececec" stroke-linecap="round" stroke-width="2"/></g></svg>